<svg xmlns="http://www.w3.org/2000/svg" xmlns:xlink="http://www.w3.org/1999/xlink" width="114" height="114" viewBox="0 0 114 114">
  <defs>
    <clipPath id="clip-path">
      <rect id="Rectángulo_13577" data-name="Rectángulo 13577" width="82.699" height="78.555" fill="none"/>
    </clipPath>
  </defs>
  <g id="Grupo_915" data-name="Grupo 915" transform="translate(-32 -25)">
    <circle id="Elipse_77" data-name="Elipse 77" cx="57" cy="57" r="57" transform="translate(32 25)" fill="#fff"/>
    <g id="Grupo_747" data-name="Grupo 747" transform="translate(47.656 42.373)">
      <g id="Grupo_747-2" data-name="Grupo 747" clip-path="url(#clip-path)">
        <path id="Trazado_7679" data-name="Trazado 7679" d="M25.39,34.96a3.747,3.747,0,1,1-3.748-3.742A3.74,3.74,0,0,1,25.39,34.96" transform="translate(-4.538 -7.917)" fill="#cbcbcc"/>
        <path id="Trazado_7680" data-name="Trazado 7680" d="M39.521,31.893a3.753,3.753,0,1,1-3.753-3.733,3.755,3.755,0,0,1,3.753,3.733" transform="translate(-8.119 -7.141)" fill="#cbcbcc"/>
        <path id="Trazado_7681" data-name="Trazado 7681" d="M53.466,28.406a3.744,3.744,0,1,1-3.742-3.747,3.744,3.744,0,0,1,3.742,3.747" transform="translate(-11.659 -6.253)" fill="#cbcbcc"/>
        <path id="Trazado_7682" data-name="Trazado 7682" d="M67.939,31.995a3.747,3.747,0,1,1-3.754-3.754,3.753,3.753,0,0,1,3.754,3.754" transform="translate(-15.328 -7.162)" fill="#cbcbcc"/>
        <path id="Trazado_7683" data-name="Trazado 7683" d="M82.4,35.389a3.747,3.747,0,1,1-3.74-3.748,3.742,3.742,0,0,1,3.74,3.748" transform="translate(-18.995 -8.024)" fill="#cbcbcc"/>
        <path id="Trazado_7684" data-name="Trazado 7684" d="M72.357,42.952H83.54l-2.423,16.77H75.145Z" transform="translate(-18.349 -10.892)" fill="#cbcbcc"/>
        <path id="Trazado_7685" data-name="Trazado 7685" d="M15.177,42.439H26.354l-2.411,16.77H17.965Z" transform="translate(-3.849 -10.762)" fill="#cbcbcc"/>
        <path id="Trazado_7686" data-name="Trazado 7686" d="M29.475,39.568H40.651L38.24,56.318H32.261Z" transform="translate(-7.474 -10.034)" fill="#cbcbcc"/>
        <path id="Trazado_7687" data-name="Trazado 7687" d="M57.9,39.568H69.071l-2.412,16.75H60.681Z" transform="translate(-14.683 -10.034)" fill="#cbcbcc"/>
        <path id="Trazado_7688" data-name="Trazado 7688" d="M8.024,56.332S-7.724,34.605,11.578,13.006A34.2,34.2,0,0,1,41.686,2.979a32.017,32.017,0,0,1,20.457,11.68S50.343-4.691,25.3,1.071A36.3,36.3,0,0,0,4.014,18.029s-11.3,18.026,4.01,38.3" transform="translate(0 0)" fill="#67144b"/>
        <path id="Trazado_7689" data-name="Trazado 7689" d="M55.145,71.886l-2.791-16H46.769l-2.411,16Z" transform="translate(-11.249 -14.171)" fill="#67144b"/>
        <path id="Trazado_7690" data-name="Trazado 7690" d="M53.814,48.722a3.751,3.751,0,1,1-3.758-3.755,3.75,3.75,0,0,1,3.758,3.755" transform="translate(-11.744 -11.403)" fill="#67144b"/>
        <path id="Trazado_7691" data-name="Trazado 7691" d="M49.381,41.537a4.727,4.727,0,0,1,4.4,2.948l1.038-8.516H43.649l1.276,8.724a4.72,4.72,0,0,1,4.457-3.157" transform="translate(-11.069 -9.122)" fill="#cbcbcc"/>
        <path id="Trazado_7692" data-name="Trazado 7692" d="M25.155,100.735q-.195.447-.367.914-.493-.025-.9-.08t-.687-.118a4.335,4.335,0,0,1-1.158-.431,3.077,3.077,0,0,1-.909-.754,2.137,2.137,0,0,1-.468-1.02,3.251,3.251,0,0,1,.559-2.337,2.622,2.622,0,0,1,.915-.793,3.094,3.094,0,0,1,1.217-.335,4.632,4.632,0,0,1,1.355.1,8.413,8.413,0,0,1,1.444.472c-.044.239-.072.408-.086.508l-.064.433a7.844,7.844,0,0,0-.748-.336,4.528,4.528,0,0,0-.587-.175,2.89,2.89,0,0,0-.885-.059,1.993,1.993,0,0,0-.816.252,1.95,1.95,0,0,0-.634.577,2.164,2.164,0,0,0-.353.8,2.075,2.075,0,0,0,0,.975,1.617,1.617,0,0,0,.522.813,2.39,2.39,0,0,0,1.084.506,5.971,5.971,0,0,0,1.558.092" transform="translate(-5.232 -24.285)" fill="#67144b"/>
        <path id="Trazado_7693" data-name="Trazado 7693" d="M27.816,102.067q.157-.6.245-1,.142-.639.3-1.477T28.655,98q.409.071.615.1c.126.019.331.048.614.086q-.165.693-.3,1.324t-.275,1.453q-.143.82-.216,1.3c-.255-.045-.461-.078-.615-.1s-.368-.054-.664-.093m.967-4.768q.081-.412.115-.634l.019-.129c.255.045.463.079.623.1q.329.05.613.086-.028.1-.052.226l-.1.534q-.319-.057-.59-.1c-.18-.028-.388-.057-.625-.088" transform="translate(-7.054 -24.48)" fill="#67144b"/>
        <path id="Trazado_7694" data-name="Trazado 7694" d="M35.628,103.481q-.374-.041-.573-.06c-.167-.015-.358-.03-.571-.043l.069-.673q-.134.159-.233.255a1.258,1.258,0,0,1-.252.182,1.345,1.345,0,0,1-.329.13,2.548,2.548,0,0,1-.4.063,2.667,2.667,0,0,1-.469,0,2.36,2.36,0,0,1-.817-.208,1.225,1.225,0,0,1-.522-.45,1.243,1.243,0,0,1-.137-.787l.007-.085.163-1.042.189-1.376c.013-.111.027-.249.042-.414q.4.045.631.065c.162.015.358.029.587.045l-.309,1.841c-.022.143-.039.263-.052.362s-.022.169-.025.212a1.135,1.135,0,0,0,.048.494.61.61,0,0,0,.292.323,1.179,1.179,0,0,0,.477.146,1.223,1.223,0,0,0,.475-.048,1,1,0,0,0,.362-.2,1.2,1.2,0,0,0,.276-.372,2.057,2.057,0,0,0,.155-.487q.05-.221.125-.763.094-.655.169-1.332.42.046.642.066.251.022.567.043-.1.577-.237,1.444t-.206,1.431q-.073.565-.146,1.238" transform="translate(-7.959 -25.098)" fill="#67144b"/>
        <path id="Trazado_7695" data-name="Trazado 7695" d="M43.321,103.269c-.237-.009-.419-.015-.551-.016s-.339,0-.589,0l.049-.709a3.671,3.671,0,0,1-.328.354,1.609,1.609,0,0,1-.337.229,1.658,1.658,0,0,1-.431.154,2.191,2.191,0,0,1-.478.046,2.053,2.053,0,0,1-.766-.155,1.735,1.735,0,0,1-.6-.411,1.593,1.593,0,0,1-.362-.622,2.328,2.328,0,0,1-.108-.746,2.676,2.676,0,0,1,.23-1.04,2.141,2.141,0,0,1,.6-.813,2.192,2.192,0,0,1,.846-.431,3.755,3.755,0,0,1,1.008-.115,6.272,6.272,0,0,1,.878.083q.039-.53.049-1.113l0-.277q.4.013.615.017c.185,0,.393,0,.624,0q-.11,1.035-.221,2.818t-.125,2.746m-1-3.418a2.43,2.43,0,0,0-.614-.091,2.277,2.277,0,0,0-.646.079,1.376,1.376,0,0,0-.549.3,1.416,1.416,0,0,0-.373.549,1.838,1.838,0,0,0-.138.651,1.385,1.385,0,0,0,.108.577.913.913,0,0,0,.358.417,1.06,1.06,0,0,0,.557.16,1.1,1.1,0,0,0,.428-.073,1.032,1.032,0,0,0,.355-.24,1.383,1.383,0,0,0,.273-.422,2.566,2.566,0,0,0,.166-.691q.035-.318.075-1.214" transform="translate(-9.843 -24.772)" fill="#67144b"/>
        <path id="Trazado_7696" data-name="Trazado 7696" d="M46.59,100.3c.025-.2.038-.337.043-.416s.012-.2.025-.362q.569-.175,1.007-.263a7.142,7.142,0,0,1,.852-.12,3.36,3.36,0,0,1,.867.036,1.306,1.306,0,0,1,.639.284.909.909,0,0,1,.272.637q.019.233.025,1.187t.073,1.969c-.216.012-.415.024-.6.039s-.376.032-.608.056c.011-.331.012-.713,0-1.146l-.024-1.017a2.431,2.431,0,0,1-.236.162,1.646,1.646,0,0,1-.185.091q-.1.043-.366.134c-.175.061-.316.114-.42.158a2.038,2.038,0,0,0-.283.143.979.979,0,0,0-.208.168.547.547,0,0,0-.116.185.5.5,0,0,0-.025.2.443.443,0,0,0,.128.287.54.54,0,0,0,.275.152,1.246,1.246,0,0,0,.374.02,2.058,2.058,0,0,0,.286-.043,2.5,2.5,0,0,0,.4-.133,6.886,6.886,0,0,0-.155.708q-.3.073-.476.1c-.118.018-.228.03-.331.039a2.413,2.413,0,0,1-.892-.069.971.971,0,0,1-.543-.4,1.261,1.261,0,0,1-.211-.593.989.989,0,0,1,.037-.351,1.028,1.028,0,0,1,.163-.328,1.607,1.607,0,0,1,.3-.3,2.4,2.4,0,0,1,.546-.3,8.93,8.93,0,0,1,.96-.328c.106-.03.216-.065.33-.105a2.042,2.042,0,0,0,.272-.113.631.631,0,0,0,.172-.13.483.483,0,0,0,.1-.158.376.376,0,0,0,.024-.161.369.369,0,0,0-.13-.26.6.6,0,0,0-.293-.131,1.58,1.58,0,0,0-.384-.012,4.907,4.907,0,0,0-1.684.487" transform="translate(-11.71 -25.138)" fill="#67144b"/>
        <path id="Trazado_7697" data-name="Trazado 7697" d="M57.856,101.631q-.352.049-.545.081c-.141.023-.334.057-.58.1l-.078-.707a3.656,3.656,0,0,1-.26.406,1.658,1.658,0,0,1-.291.286,1.674,1.674,0,0,1-.4.227,2.148,2.148,0,0,1-1.244.113,1.74,1.74,0,0,1-.667-.3,1.614,1.614,0,0,1-.466-.549,2.323,2.323,0,0,1-.237-.716,2.66,2.66,0,0,1,.043-1.062,2.13,2.13,0,0,1,.445-.906,2.2,2.2,0,0,1,.758-.574,3.764,3.764,0,0,1,.972-.291,6.525,6.525,0,0,1,.879-.072c-.037-.352-.085-.72-.148-1.1l-.045-.275q.4-.056.608-.09c.183-.03.387-.066.615-.108q.074,1.037.279,2.812t.36,2.725m-1.588-3.189a2.493,2.493,0,0,0-.62.019,2.33,2.33,0,0,0-.622.192,1.364,1.364,0,0,0-.488.39,1.4,1.4,0,0,0-.271.606,1.85,1.85,0,0,0-.022.665,1.4,1.4,0,0,0,.209.549.9.9,0,0,0,.426.348,1.048,1.048,0,0,0,.576.059,1.1,1.1,0,0,0,.408-.147,1.027,1.027,0,0,0,.306-.3,1.391,1.391,0,0,0,.195-.464,2.563,2.563,0,0,0,.042-.709q-.021-.318-.14-1.209" transform="translate(-13.455 -24.368)" fill="#67144b"/>
        <path id="Trazado_7698" data-name="Trazado 7698" d="M68.306,98.924c-.228.061-.405.111-.531.147s-.324.1-.564.175l-.163-.692a3.637,3.637,0,0,1-.208.435,1.6,1.6,0,0,1-.253.319,1.706,1.706,0,0,1-.366.276,2.191,2.191,0,0,1-.444.185,2.075,2.075,0,0,1-.777.08,1.746,1.746,0,0,1-.7-.214,1.6,1.6,0,0,1-.529-.487,2.31,2.31,0,0,1-.325-.681,2.673,2.673,0,0,1-.089-1.06,2.151,2.151,0,0,1,.328-.954,2.212,2.212,0,0,1,.681-.663,3.734,3.734,0,0,1,.929-.409,6.318,6.318,0,0,1,.863-.181q-.12-.518-.284-1.078l-.078-.266c.259-.071.456-.126.593-.166.178-.052.377-.113.6-.184q.2,1.022.626,2.757t.694,2.659m-1.971-2.967a2.439,2.439,0,0,0-.613.095,2.276,2.276,0,0,0-.593.267,1.371,1.371,0,0,0-.436.447,1.421,1.421,0,0,0-.194.635,1.854,1.854,0,0,0,.061.663,1.4,1.4,0,0,0,.275.519.914.914,0,0,0,.466.293,1.056,1.056,0,0,0,.579-.013,1.1,1.1,0,0,0,.387-.2,1.022,1.022,0,0,0,.267-.333,1.4,1.4,0,0,0,.136-.484,2.573,2.573,0,0,0-.046-.71q-.06-.313-.289-1.182" transform="translate(-16.062 -23.712)" fill="#67144b"/>
        <path id="Trazado_7699" data-name="Trazado 7699" d="M74.638,96.225c.023.163.079.45.166.864q-.4.253-.678.4a6.164,6.164,0,0,1-.581.261,4.311,4.311,0,0,1-.971.263,1.829,1.829,0,0,1-.864-.083,1.685,1.685,0,0,1-.708-.47,2.383,2.383,0,0,1-.46-.749,2.63,2.63,0,0,1-.181-.973,1.985,1.985,0,0,1,.2-.9,1.931,1.931,0,0,1,.549-.668,3.122,3.122,0,0,1,.779-.435,3.239,3.239,0,0,1,.81-.2,1.552,1.552,0,0,1,1.325.461,1.854,1.854,0,0,1,.4.637,1.966,1.966,0,0,1,.1.384l-2.915,1.135c.031.1.057.172.079.228a1.247,1.247,0,0,0,.273.431,1.032,1.032,0,0,0,.407.258,1.2,1.2,0,0,0,.5.057,1.858,1.858,0,0,0,.5-.115,3.7,3.7,0,0,0,.573-.287,7.282,7.282,0,0,0,.687-.49m-3.167-.54,1.864-.719a2.221,2.221,0,0,0-.116-.264.962.962,0,0,0-.131-.178.707.707,0,0,0-.19-.154.736.736,0,0,0-.222-.077.852.852,0,0,0-.255,0,1.2,1.2,0,0,0-.281.074,1.16,1.16,0,0,0-.305.175,1.062,1.062,0,0,0-.232.255.937.937,0,0,0-.131.3,1.082,1.082,0,0,0-.034.272,2.537,2.537,0,0,0,.033.321" transform="translate(-17.842 -23.714)" fill="#67144b"/>
        <path id="Trazado_7700" data-name="Trazado 7700" d="M80.3,93.55l-.353-.859-1.335-2.964-.6-1.277q.536-.29.781-.428.2-.111.714-.409c.148.17.254.29.319.359s.176.178.333.324.352.321.583.525q.521.466.992.94l.854.859-.233-1.585-.226-2.1c-.007-.072-.018-.152-.034-.241s-.046-.247-.092-.474q.447-.241.794-.435.231-.13.734-.419.522,1.054,1.19,2.309t1.011,1.868q.166.294.422.736-.374.2-.507.275c-.13.072-.3.17-.511.294q-.181-.375-.305-.614l-1.123-2.153q-.24-.455-.484-.889l-.165-.287.57,4.23.078.514c-.245.131-.412.222-.5.272-.112.063-.287.163-.523.3l-1.869-1.835c-.066-.065-.21-.2-.431-.4l-.637-.6c-.061-.057-.109-.1-.145-.141l-.237-.253.207.483q.1.228.351.758l1.09,2.288q.084.168.26.49l-.484.262q-.123.068-.484.28" transform="translate(-19.783 -21.647)" fill="#67144b"/>
        <path id="Trazado_7701" data-name="Trazado 7701" d="M92.576,85.608q.093.228.369.8-.321.343-.561.552a6.275,6.275,0,0,1-.5.393,4.3,4.3,0,0,1-.879.491,1.853,1.853,0,0,1-.858.13,1.7,1.7,0,0,1-.8-.284,2.383,2.383,0,0,1-.628-.614,2.667,2.667,0,0,1-.411-.9,1.992,1.992,0,0,1-.025-.926,1.9,1.9,0,0,1,.37-.781,3.118,3.118,0,0,1,.65-.612,3.238,3.238,0,0,1,.736-.393,1.557,1.557,0,0,1,1.4.124,1.863,1.863,0,0,1,.543.522,1.843,1.843,0,0,1,.193.347L89.62,86.263c.054.086.1.152.132.2a1.264,1.264,0,0,0,.369.353,1.039,1.039,0,0,0,.458.152,1.206,1.206,0,0,0,.5-.067,1.836,1.836,0,0,0,.461-.234,3.693,3.693,0,0,0,.486-.418,7.149,7.149,0,0,0,.548-.642m-4.01-1.8-.087-.4c-.022-.084-.046-.186-.075-.306s-.055-.232-.078-.339q.287-.194.524-.361.195-.139.518-.377c-.026.294-.04.521-.043.679l-.023.581q-.19.124-.381.26c-.113.08-.231.167-.355.26m.807,2.043L91.006,84.7a2.542,2.542,0,0,0-.177-.228,1.054,1.054,0,0,0-.17-.141.741.741,0,0,0-.222-.1.69.69,0,0,0-.234-.021.85.85,0,0,0-.247.06,1.211,1.211,0,0,0-.255.14,1.172,1.172,0,0,0-.254.243,1.084,1.084,0,0,0-.163.305.92.92,0,0,0-.055.317,1.1,1.1,0,0,0,.033.272,2.515,2.515,0,0,0,.11.3" transform="translate(-22.376 -20.802)" fill="#67144b"/>
        <path id="Trazado_7702" data-name="Trazado 7702" d="M94.842,85.073q.021-1.372.009-2.825l-.661-.182q-.324-.09-.842-.216l-.864-.213q.365-.3.58-.476c.19-.159.357-.3.5-.431q.339.1.758.2l.535.14,0-1.423q.237-.188.5-.411c.166-.139.336-.285.509-.437l0,1.1q0,.381.014,1.427l1.129.306,1.49.372c-.192.154-.366.3-.526.431q-.289.242-.555.475-.468-.144-.892-.24c-.283-.063-.5-.117-.645-.162.005.184.005.422,0,.714s0,.615.007.968q-.281.224-.5.411-.25.208-.549.47" transform="translate(-23.453 -19.982)" fill="#67144b"/>
        <path id="Trazado_7703" data-name="Trazado 7703" d="M96.909,76.883q-.275-.317-.431-.48l-.09-.095q.288-.261.464-.428c.161-.153.309-.3.444-.431.04.055.09.116.147.181l.358.408q-.241.217-.439.405c-.133.125-.284.272-.454.44m3.172,3.688q-.374-.488-.638-.806-.418-.5-.98-1.144t-1.081-1.208q.307-.28.458-.423t.444-.431q.446.554.864,1.047t.978,1.107q.561.617.894.968-.288.262-.458.423c-.107.1-.268.258-.481.467" transform="translate(-24.443 -19.133)" fill="#67144b"/>
        <path id="Trazado_7704" data-name="Trazado 7704" d="M104.654,75.042q.107.13.232.307c.084.117.19.26.322.426a5.568,5.568,0,0,1-.729.968,3.456,3.456,0,0,1-.5.442,1.923,1.923,0,0,1-.568.284,1.7,1.7,0,0,1-1.3-.131,2.723,2.723,0,0,1-.62-.44,2.843,2.843,0,0,1-.6-.8,1.883,1.883,0,0,1-.216-.9,1.784,1.784,0,0,1,.211-.82,3.545,3.545,0,0,1,.544-.734,5.381,5.381,0,0,1,.414-.395,5.605,5.605,0,0,1,.568-.421l.694.567a3.6,3.6,0,0,0-.911.663,1.6,1.6,0,0,0-.308.463,1.1,1.1,0,0,0-.089.525,1.177,1.177,0,0,0,.158.513,1.874,1.874,0,0,0,.341.429,1.646,1.646,0,0,0,.574.369.89.89,0,0,0,.616-.014,1.526,1.526,0,0,0,.593-.4,2.9,2.9,0,0,0,.285-.371,3.61,3.61,0,0,0,.288-.528" transform="translate(-25.53 -18.468)" fill="#67144b"/>
        <path id="Trazado_7705" data-name="Trazado 7705" d="M105.265,69.156a3.123,3.123,0,0,1,.7-.649,2.086,2.086,0,0,1,.8-.338,1.721,1.721,0,0,1,.82.051,2.254,2.254,0,0,1,.755.4,2.461,2.461,0,0,1,.6.69,2.121,2.121,0,0,1,.285.843,1.964,1.964,0,0,1-.12.911,3.192,3.192,0,0,1-.5.884,3.1,3.1,0,0,1-.7.648,2.049,2.049,0,0,1-.8.333,1.835,1.835,0,0,1-.835-.051,2.228,2.228,0,0,1-.763-.4,2.467,2.467,0,0,1-.578-.651,1.973,1.973,0,0,1-.276-.818,2.13,2.13,0,0,1,.12-.943,3.047,3.047,0,0,1,.5-.911m.657.524a1.272,1.272,0,0,0-.277.625,1.053,1.053,0,0,0,.134.661,1.942,1.942,0,0,0,.5.577,1.609,1.609,0,0,0,.567.3.973.973,0,0,0,.59-.019,1.131,1.131,0,0,0,.527-.387,1.208,1.208,0,0,0,.271-.624,1.089,1.089,0,0,0-.143-.658,1.986,1.986,0,0,0-.507-.586,1.659,1.659,0,0,0-.551-.3.927.927,0,0,0-.579.014,1.156,1.156,0,0,0-.527.393" transform="translate(-26.533 -17.28)" fill="#67144b"/>
        <path id="Trazado_7706" data-name="Trazado 7706" d="M27.435,94.514q.159-.616.366-1.6T28.11,91.3q.451,0,.7.01c.163.01.324.027.483.052a2.191,2.191,0,0,1,.561.165.876.876,0,0,1,.377.307,1.089,1.089,0,0,1,.168.427,1.457,1.457,0,0,1,0,.476,1.56,1.56,0,0,1-.148.459,1.242,1.242,0,0,1-.285.371.9.9,0,0,1-.386.207,1.138,1.138,0,0,1-.44.013,1.2,1.2,0,0,1-.263-.075,1.02,1.02,0,0,1-.22-.121,1,1,0,0,1-.149-.131,1.852,1.852,0,0,1-.138-.185l-.193.969-.027.152c0,.019-.018.094-.039.224l-.328-.056Zm1.246-2.695c-.024.079-.043.147-.057.2l-.054.246c-.023.106-.039.185-.048.235a1.2,1.2,0,0,0-.013.266.551.551,0,0,0,.078.249.586.586,0,0,0,.18.193.6.6,0,0,0,.238.095.572.572,0,0,0,.337-.045.637.637,0,0,0,.27-.249,1.022,1.022,0,0,0,.143-.388.833.833,0,0,0-.022-.411.542.542,0,0,0-.195-.273.742.742,0,0,0-.319-.128,1.789,1.789,0,0,0-.538.005" transform="translate(-6.957 -23.153)" fill="#72737a"/>
        <path id="Trazado_7707" data-name="Trazado 7707" d="M32.162,92.35c.034-.106.056-.18.066-.223s.028-.108.051-.2c.217-.025.407-.037.57-.039a3.863,3.863,0,0,1,.472.023,1.834,1.834,0,0,1,.464.11.71.71,0,0,1,.314.222.507.507,0,0,1,.081.376q-.015.129-.11.651c-.064.349-.119.71-.166,1.084-.118-.016-.226-.03-.325-.041s-.206-.022-.334-.033c.04-.18.081-.389.12-.625l.093-.558a1.4,1.4,0,0,1-.144.063.748.748,0,0,1-.11.03c-.04.008-.11.021-.211.037s-.181.029-.243.042a1.07,1.07,0,0,0-.166.049.541.541,0,0,0-.129.07.294.294,0,0,0-.082.089.272.272,0,0,0-.034.107.252.252,0,0,0,.038.17.3.3,0,0,0,.133.112.66.66,0,0,0,.2.049,1.09,1.09,0,0,0,.159.007,1.429,1.429,0,0,0,.228-.031,3.79,3.79,0,0,0-.157.37c-.112.005-.2.007-.266,0s-.126-.007-.182-.013a1.3,1.3,0,0,1-.473-.131.53.53,0,0,1-.251-.275.7.7,0,0,1-.052-.346.553.553,0,0,1,.056-.187.562.562,0,0,1,.122-.162.878.878,0,0,1,.191-.133,1.317,1.317,0,0,1,.326-.107,4.841,4.841,0,0,1,.551-.078c.06-.006.124-.013.19-.024a1.02,1.02,0,0,0,.157-.034.34.34,0,0,0,.107-.053.269.269,0,0,0,.071-.075.2.2,0,0,0,.029-.086.205.205,0,0,0-.043-.155.323.323,0,0,0-.144-.1.87.87,0,0,0-.206-.046,2.65,2.65,0,0,0-.958.091" transform="translate(-8.041 -23.303)" fill="#72737a"/>
        <path id="Trazado_7708" data-name="Trazado 7708" d="M35.507,94.487l.146-1.07.064-.623c.012-.128.023-.257.033-.387,0-.023.005-.094.01-.216.145.014.252.023.32.028s.184.012.316.019l-.035.318a1.372,1.372,0,0,1,.165-.171.679.679,0,0,1,.149-.093.721.721,0,0,1,.178-.053.836.836,0,0,1,.388.029q-.016.21-.018.535a1,1,0,0,0-.248-.054.675.675,0,0,0-.242.022.54.54,0,0,0-.2.107.629.629,0,0,0-.151.187.866.866,0,0,0-.084.242c-.018.078-.038.212-.06.4s-.04.377-.054.561c-.005.071-.009.16-.012.267-.119-.011-.227-.021-.325-.028s-.212-.014-.346-.021" transform="translate(-9.004 -23.379)" fill="#72737a"/>
        <path id="Trazado_7709" data-name="Trazado 7709" d="M38.3,92.87c.025-.108.042-.184.049-.228s.019-.11.036-.2a5.438,5.438,0,0,1,.566-.083,3.738,3.738,0,0,1,.471-.014,1.8,1.8,0,0,1,.471.073.715.715,0,0,1,.331.2.509.509,0,0,1,.11.369q0,.129-.059.658T40.2,94.735c-.119-.007-.228-.012-.328-.015s-.208-.006-.336-.007q.04-.273.071-.632l.05-.564a1.359,1.359,0,0,1-.138.075.814.814,0,0,1-.107.039c-.04.012-.109.029-.208.052s-.179.043-.24.061a1.14,1.14,0,0,0-.163.061.548.548,0,0,0-.123.08.291.291,0,0,0-.075.1.269.269,0,0,0-.026.109.246.246,0,0,0,.052.166.3.3,0,0,0,.14.1.693.693,0,0,0,.2.034,1.3,1.3,0,0,0,.158-.007,1.355,1.355,0,0,0,.225-.049,3.818,3.818,0,0,0-.128.381c-.111.015-.2.023-.266.025s-.127,0-.183,0a1.309,1.309,0,0,1-.481-.093.524.524,0,0,1-.272-.255.7.7,0,0,1-.079-.34.573.573,0,0,1,.15-.363.888.888,0,0,1,.181-.147,1.3,1.3,0,0,1,.316-.133,4.68,4.68,0,0,1,.544-.121c.059-.01.122-.023.187-.039a1.192,1.192,0,0,0,.155-.046.358.358,0,0,0,.1-.061.285.285,0,0,0,.064-.081.224.224,0,0,0,.023-.088.2.2,0,0,0-.055-.152.313.313,0,0,0-.152-.09.849.849,0,0,0-.209-.031,2.652,2.652,0,0,0-.948.166" transform="translate(-9.622 -23.417)" fill="#72737a"/>
        <path id="Trazado_7710" data-name="Trazado 7710" d="M43.437,94.483q.027-.384.057-1.38t.028-1.719l.347,0c.092,0,.2-.005.337-.011l-.04.83-.045,1.848v.422c-.128,0-.237,0-.326,0l-.358.012" transform="translate(-11.015 -23.17)" fill="#72737a"/>
        <path id="Trazado_7711" data-name="Trazado 7711" d="M45.269,92.875c.016-.11.025-.187.028-.231s.009-.111.019-.2a5.546,5.546,0,0,1,.556-.131,3.76,3.76,0,0,1,.468-.055,1.841,1.841,0,0,1,.475.032.714.714,0,0,1,.347.166.51.51,0,0,1,.141.358q.008.129,0,.66t.015,1.1c-.119,0-.228.008-.328.013l-.334.023q.016-.277.015-.637V93.4c-.057.041-.1.069-.131.087a.845.845,0,0,1-.1.047c-.038.016-.106.039-.2.071s-.175.058-.233.081a1.094,1.094,0,0,0-.157.075.523.523,0,0,0-.116.09.3.3,0,0,0-.066.1.264.264,0,0,0-.016.111.242.242,0,0,0,.066.16.292.292,0,0,0,.149.089.672.672,0,0,0,.2.016,1.249,1.249,0,0,0,.157-.02,1.328,1.328,0,0,0,.22-.069,3.737,3.737,0,0,0-.094.391c-.11.025-.2.04-.263.049s-.125.013-.181.016a1.281,1.281,0,0,1-.488-.051.528.528,0,0,1-.293-.23.706.706,0,0,1-.109-.332.576.576,0,0,1,.025-.194.561.561,0,0,1,.094-.18.849.849,0,0,1,.167-.163,1.321,1.321,0,0,1,.3-.16,4.826,4.826,0,0,1,.531-.168c.059-.016.119-.034.183-.054a1.176,1.176,0,0,0,.15-.06.353.353,0,0,0,.1-.069.273.273,0,0,0,.057-.087.206.206,0,0,0,.015-.09.2.2,0,0,0-.068-.146.312.312,0,0,0-.159-.077.865.865,0,0,0-.21-.013,2.664,2.664,0,0,0-.93.248" transform="translate(-11.415 -23.394)" fill="#72737a"/>
        <path id="Trazado_7712" data-name="Trazado 7712" d="M50.5,93.959q-.059-.34-.116-.552a2.1,2.1,0,0,0,.852.1.853.853,0,0,0,.272-.078.4.4,0,0,0,.176-.146.286.286,0,0,0,.04-.186.312.312,0,0,0-.046-.134.647.647,0,0,0-.169-.156c-.1-.072-.272-.19-.522-.351-.119-.079-.2-.136-.248-.169a1.6,1.6,0,0,1-.242-.205.749.749,0,0,1-.131-.191.706.706,0,0,1-.058-.213.721.721,0,0,1,.075-.412.808.808,0,0,1,.331-.334,1.567,1.567,0,0,1,.6-.178,4.062,4.062,0,0,1,.758-.01q.039.233.11.531a1.952,1.952,0,0,0-.684-.056.65.65,0,0,0-.361.145.285.285,0,0,0-.117.251.331.331,0,0,0,.019.075.412.412,0,0,0,.04.073.6.6,0,0,0,.084.087,1.209,1.209,0,0,0,.169.122c.072.046.135.082.186.11l.317.218a2.607,2.607,0,0,1,.215.149,1.687,1.687,0,0,1,.166.142.852.852,0,0,1,.114.135.654.654,0,0,1,.069.137.7.7,0,0,1,.036.152.752.752,0,0,1-.275.675,1.116,1.116,0,0,1-.355.194,2.063,2.063,0,0,1-.423.093,2.825,2.825,0,0,1-.349.017q-.2,0-.532-.033" transform="translate(-12.755 -23.008)" fill="#72737a"/>
        <path id="Trazado_7713" data-name="Trazado 7713" d="M55.948,93q-.009.138-.007.49c-.16.061-.3.108-.409.139s-.226.054-.342.075a2.34,2.34,0,0,1-.552.031,1.01,1.01,0,0,1-.455-.145.943.943,0,0,1-.328-.337,1.333,1.333,0,0,1-.163-.46,1.482,1.482,0,0,1,.011-.55,1.118,1.118,0,0,1,.209-.469,1.063,1.063,0,0,1,.369-.3,1.706,1.706,0,0,1,.467-.146,1.725,1.725,0,0,1,.458-.017.861.861,0,0,1,.388.128.891.891,0,0,1,.273.275,1.037,1.037,0,0,1,.144.393,1.125,1.125,0,0,1,.013.221l-1.694.281c.006.056.012.1.017.134a.709.709,0,0,0,.1.266.569.569,0,0,0,.19.187.638.638,0,0,0,.263.089.947.947,0,0,0,.284,0,1.957,1.957,0,0,0,.34-.09A3.769,3.769,0,0,0,55.948,93m-1.642-.658,1.082-.176A1.188,1.188,0,0,0,55.355,92a.58.58,0,0,0-.05-.111.4.4,0,0,0-.086-.105.359.359,0,0,0-.11-.068.432.432,0,0,0-.137-.03.642.642,0,0,0-.159.007.631.631,0,0,0-.184.06.588.588,0,0,0-.153.113.531.531,0,0,0-.1.145.647.647,0,0,0-.049.145,1.436,1.436,0,0,0-.018.178" transform="translate(-13.61 -23.152)" fill="#72737a"/>
        <path id="Trazado_7714" data-name="Trazado 7714" d="M57.85,93.6a3.1,3.1,0,0,0,.928-.03,1.064,1.064,0,0,0,.266-.093.638.638,0,0,0,.193-.146.439.439,0,0,0,.1-.207.9.9,0,0,0,.009-.272q-.017-.151-.072-.452a1.522,1.522,0,0,1-.12.218.8.8,0,0,1-.146.154,1.059,1.059,0,0,1-.213.135,1.264,1.264,0,0,1-.273.093,1.247,1.247,0,0,1-.4.022.9.9,0,0,1-.363-.123.857.857,0,0,1-.285-.282,1.2,1.2,0,0,1-.163-.4,1.47,1.47,0,0,1-.006-.609,1.154,1.154,0,0,1,.255-.528A1.411,1.411,0,0,1,58,90.73a2.432,2.432,0,0,1,.574-.193q.177-.039.409-.067c.154-.019.36-.033.618-.044l.1.714.142.89.154.8a1.654,1.654,0,0,1,.022.268.762.762,0,0,1-.038.245.713.713,0,0,1-.113.211.778.778,0,0,1-.18.169,1.4,1.4,0,0,1-.269.141,2.078,2.078,0,0,1-.358.11,4.846,4.846,0,0,1-.479.076,4.594,4.594,0,0,1-.6.025Zm1.179-2.642a1.984,1.984,0,0,0-.378.04,1.058,1.058,0,0,0-.469.212.735.735,0,0,0-.234.373.922.922,0,0,0-.013.451.766.766,0,0,0,.131.3.456.456,0,0,0,.248.173.646.646,0,0,0,.316.008.694.694,0,0,0,.212-.083.55.55,0,0,0,.16-.149.727.727,0,0,0,.106-.214.8.8,0,0,0,.037-.264,2.731,2.731,0,0,0-.034-.351c-.02-.139-.048-.3-.081-.493" transform="translate(-14.525 -22.931)" fill="#72737a"/>
        <path id="Trazado_7715" data-name="Trazado 7715" d="M63.918,91.585c-.134.034-.236.059-.307.079-.089.023-.19.053-.3.087l-.095-.365a1.782,1.782,0,0,1-.071.178.684.684,0,0,1-.094.144.725.725,0,0,1-.144.13,1.341,1.341,0,0,1-.193.109,1.462,1.462,0,0,1-.242.088,1.257,1.257,0,0,1-.46.048.668.668,0,0,1-.356-.134.7.7,0,0,1-.222-.384l-.013-.046-.116-.575-.168-.753q-.022-.091-.058-.224c.143-.036.256-.065.337-.087s.19-.052.311-.089l.2,1.019c.016.078.031.145.043.2s.022.093.028.116a.649.649,0,0,0,.119.249.338.338,0,0,0,.213.113.629.629,0,0,0,.273-.015.676.676,0,0,0,.236-.116.552.552,0,0,0,.149-.172.666.666,0,0,0,.069-.247,1.117,1.117,0,0,0-.014-.284c-.011-.083-.039-.224-.083-.422-.052-.24-.108-.482-.169-.727.15-.037.264-.068.343-.089s.19-.053.3-.086q.058.32.156.8t.17.785q.072.309.163.674" transform="translate(-15.489 -22.652)" fill="#72737a"/>
        <path id="Trazado_7716" data-name="Trazado 7716" d="M65.527,91.168l-.262-1.047-.172-.6c-.036-.123-.074-.246-.113-.371l-.07-.2.308-.093.3-.1.086.308a1.367,1.367,0,0,1,.09-.219.659.659,0,0,1,.1-.142.7.7,0,0,1,.146-.116.855.855,0,0,1,.37-.117c.043.134.1.3.183.5a1.022,1.022,0,0,0-.25.041.661.661,0,0,0-.217.111.537.537,0,0,0-.142.171.631.631,0,0,0-.07.231.878.878,0,0,0,.012.255c.013.079.043.21.093.394s.1.364.158.54c.022.068.051.152.088.253l-.312.094-.33.11" transform="translate(-16.46 -22.433)" fill="#72737a"/>
        <path id="Trazado_7717" data-name="Trazado 7717" d="M67.1,87.6c-.045-.149-.081-.263-.109-.341l-.024-.069c.135-.044.245-.08.329-.109.115-.04.221-.079.319-.116.008.037.019.079.034.125l.088.289c-.113.036-.217.071-.311.1s-.2.072-.326.118m.768,2.595c-.052-.222-.1-.408-.14-.555q-.1-.35-.236-.8c-.093-.3-.184-.589-.272-.858.144-.047.252-.084.324-.108l.319-.116q.1.383.2.727t.243.785c.1.293.174.525.233.7-.136.044-.244.079-.325.108s-.192.068-.346.125" transform="translate(-16.982 -22.054)" fill="#72737a"/>
        <path id="Trazado_7718" data-name="Trazado 7718" d="M71.962,88.531c-.122.045-.216.08-.284.106s-.172.069-.3.122l-.125-.375a2.125,2.125,0,0,1-.092.25.889.889,0,0,1-.123.188.917.917,0,0,1-.186.169,1.177,1.177,0,0,1-.234.122,1.118,1.118,0,0,1-.422.08.95.95,0,0,1-.393-.086.894.894,0,0,1-.314-.245,1.319,1.319,0,0,1-.212-.362,1.5,1.5,0,0,1-.1-.583,1.17,1.17,0,0,1,.472-.94,2.026,2.026,0,0,1,.487-.269,3.426,3.426,0,0,1,.464-.14c-.061-.187-.131-.381-.21-.583l-.056-.144c.138-.05.243-.09.316-.118.095-.037.2-.08.317-.128q.162.554.481,1.5t.514,1.44m-1.229-1.552a1.393,1.393,0,0,0-.331.081,1.243,1.243,0,0,0-.311.175.747.747,0,0,0-.216.267.8.8,0,0,0-.074.361,1.033,1.033,0,0,0,.067.363.788.788,0,0,0,.176.275.507.507,0,0,0,.27.14.574.574,0,0,0,.316-.033.6.6,0,0,0,.2-.128.559.559,0,0,0,.129-.2.741.741,0,0,0,.05-.274,1.445,1.445,0,0,0-.06-.39c-.033-.113-.106-.327-.218-.641" transform="translate(-17.542 -21.706)" fill="#72737a"/>
        <path id="Trazado_7719" data-name="Trazado 7719" d="M72.921,86.5c-.025-.108-.043-.184-.057-.225s-.031-.107-.055-.194a5.683,5.683,0,0,1,.471-.324,3.885,3.885,0,0,1,.417-.22,1.836,1.836,0,0,1,.455-.142.715.715,0,0,1,.384.031.5.5,0,0,1,.261.282q.053.119.237.617t.409,1.017c-.11.046-.21.09-.3.131s-.188.087-.3.142q-.084-.263-.215-.6l-.2-.528a1.366,1.366,0,0,1-.092.128.671.671,0,0,1-.079.082q-.045.041-.163.139c-.079.064-.142.118-.187.16a1.038,1.038,0,0,0-.119.127.548.548,0,0,0-.075.125.312.312,0,0,0-.025.119.292.292,0,0,0,.025.11.257.257,0,0,0,.12.126.3.3,0,0,0,.171.028.666.666,0,0,0,.2-.058,1.126,1.126,0,0,0,.14-.075,1.472,1.472,0,0,0,.181-.143,3.687,3.687,0,0,0,.054.4c-.093.062-.169.109-.228.14s-.112.058-.163.081a1.275,1.275,0,0,1-.474.128.53.53,0,0,1-.355-.108.712.712,0,0,1-.222-.271.571.571,0,0,1-.025-.393.9.9,0,0,1,.1-.212,1.322,1.322,0,0,1,.225-.258,4.772,4.772,0,0,1,.434-.348c.049-.036.1-.075.151-.116a1.149,1.149,0,0,0,.119-.11.336.336,0,0,0,.064-.1.26.26,0,0,0,.022-.1A.2.2,0,0,0,74.192,86a.2.2,0,0,0-.116-.112.315.315,0,0,0-.176-.014.843.843,0,0,0-.2.064,2.65,2.65,0,0,0-.779.567" transform="translate(-18.463 -21.652)" fill="#72737a"/>
        <path id="Trazado_7720" data-name="Trazado 7720" d="M79.087,85.183c-.117.057-.208.1-.272.134s-.165.086-.286.151l-.161-.361a2,2,0,0,1-.066.258.863.863,0,0,1-.1.2.889.889,0,0,1-.169.187,1.144,1.144,0,0,1-.219.146,1.112,1.112,0,0,1-.412.122.954.954,0,0,1-.4-.046.892.892,0,0,1-.337-.212,1.306,1.306,0,0,1-.247-.339,1.5,1.5,0,0,1-.16-.57,1.169,1.169,0,0,1,.375-.983,1.993,1.993,0,0,1,.458-.316,3.281,3.281,0,0,1,.446-.186q-.119-.271-.266-.56l-.071-.137c.133-.064.234-.113.3-.149.09-.046.191-.1.3-.16q.217.537.628,1.441t.657,1.382m-1.378-1.42a1.368,1.368,0,0,0-.321.113,1.252,1.252,0,0,0-.292.206.746.746,0,0,0-.188.287.779.779,0,0,0-.038.366,1.049,1.049,0,0,0,.1.356.794.794,0,0,0,.2.255.5.5,0,0,0,.283.112.565.565,0,0,0,.311-.065.59.59,0,0,0,.188-.146.549.549,0,0,0,.109-.208.768.768,0,0,0,.022-.278,1.47,1.47,0,0,0-.1-.383q-.066-.165-.281-.615" transform="translate(-19.336 -20.886)" fill="#72737a"/>
        <path id="Trazado_7721" data-name="Trazado 7721" d="M82.1,84.848c-.141-.179-.246-.308-.311-.384a1.011,1.011,0,0,0,.416-.132.542.542,0,0,0,.177-.172.336.336,0,0,0,.034-.082.9.9,0,0,0,.021-.158,1.8,1.8,0,0,0,0-.21,1.73,1.73,0,0,0-.033-.2l-1.13-.929-.811-.654.305-.179c.07-.043.163-.1.276-.172q.139.135.247.232l.559.495c.172.152.3.268.382.346.053.053.122.124.205.213-.031-.142-.054-.259-.069-.35-.03-.166-.066-.39-.108-.672l-.087-.581c-.015-.1-.034-.215-.055-.333.122-.069.214-.124.277-.161l.287-.179.24,2.141.112.942a1.368,1.368,0,0,1,0,.3.7.7,0,0,1-.044.186.729.729,0,0,1-.081.155,1.19,1.19,0,0,1-.149.175,1.39,1.39,0,0,1-.216.163c-.044.026-.108.06-.192.1a1.832,1.832,0,0,1-.254.1" transform="translate(-20.405 -20.435)" fill="#72737a"/>
        <path id="Trazado_7722" data-name="Trazado 7722" d="M86.114,81.05c-.107-.137-.221-.277-.343-.419a4.072,4.072,0,0,0,.392-.14,1.465,1.465,0,0,0,.249-.137.774.774,0,0,0,.158-.146.658.658,0,0,0,.095-.146.435.435,0,0,0,.028-.111.5.5,0,0,0-.008-.16.976.976,0,0,0-.085-.213q-.085-.168-.316-.531-.181-.287-.411-.638-.194-.293-.416-.614.232-.156.3-.2l.306-.218.5.836q.185.3.518.815a3.794,3.794,0,0,1,.289.5.732.732,0,0,1,.06.213.6.6,0,0,1-.007.183.824.824,0,0,1-.081.213,1.175,1.175,0,0,1-.187.265,1.722,1.722,0,0,1-.3.259,4.134,4.134,0,0,1-.745.393" transform="translate(-21.671 -19.621)" fill="#72737a"/>
        <path id="Trazado_7723" data-name="Trazado 7723" d="M90.737,77.717c-.111.081-.2.144-.254.188s-.155.122-.246.195l-.226-.3a1.694,1.694,0,0,1,0,.192.647.647,0,0,1-.034.169.713.713,0,0,1-.084.175,1.3,1.3,0,0,1-.137.173,1.486,1.486,0,0,1-.19.174,1.286,1.286,0,0,1-.408.219.668.668,0,0,1-.38.01.7.7,0,0,1-.352-.271L88.4,78.6l-.326-.487-.441-.634c-.037-.05-.083-.112-.139-.185q.179-.132.279-.209c.071-.054.155-.121.254-.2l.567.868.115.168c.032.046.055.078.07.1a.63.63,0,0,0,.2.184.334.334,0,0,0,.24.024.64.64,0,0,0,.247-.118.677.677,0,0,0,.174-.2.546.546,0,0,0,.072-.216.649.649,0,0,0-.028-.255,1.154,1.154,0,0,0-.12-.257q-.063-.109-.237-.359-.208-.3-.433-.608c.125-.092.219-.162.284-.212s.155-.121.245-.193q.175.274.447.68c.181.269.333.49.455.663s.258.359.407.561" transform="translate(-22.188 -19.225)" fill="#72737a"/>
        <path id="Trazado_7724" data-name="Trazado 7724" d="M92.029,76.858l-.361-.349a2.582,2.582,0,0,0,.379-.155,1.326,1.326,0,0,0,.246-.161.7.7,0,0,0,.152-.168.27.27,0,0,0,.046-.157.212.212,0,0,0-.046-.125.272.272,0,0,0-.04-.038.218.218,0,0,0-.049-.026.338.338,0,0,0-.06-.016.518.518,0,0,0-.078-.007c-.031,0-.073,0-.127.005l-.16.007c-.153.008-.271.012-.354.013a1.08,1.08,0,0,1-.228-.02.62.62,0,0,1-.189-.069.532.532,0,0,1-.269-.43.588.588,0,0,1,.091-.363,1.422,1.422,0,0,1,.313-.355,4.12,4.12,0,0,1,.587-.4l.328.343a1.435,1.435,0,0,0-.468.255.925.925,0,0,0-.165.172.271.271,0,0,0-.061.155.179.179,0,0,0,.043.119.213.213,0,0,0,.06.049.245.245,0,0,0,.088.028.491.491,0,0,0,.111.007c.04,0,.119-.005.238-.013s.226-.013.319-.016a1.128,1.128,0,0,1,.249.017.675.675,0,0,1,.2.074.58.58,0,0,1,.159.131.52.52,0,0,1,.121.311.7.7,0,0,1-.1.383,1.4,1.4,0,0,1-.32.376,3.25,3.25,0,0,1-.275.2,3.4,3.4,0,0,1-.378.219" transform="translate(-23.048 -18.776)" fill="#72737a"/>
        <path id="Trazado_7725" data-name="Trazado 7725" d="M94.944,73.67q.063.112.244.4a2.957,2.957,0,0,1-.193.247,2.027,2.027,0,0,1-.149.15,1.37,1.37,0,0,1-.252.184.5.5,0,0,1-.243.067.409.409,0,0,1-.216-.058.839.839,0,0,1-.173-.145l-.051-.061-.2-.252-.592-.737-.251.226c-.054-.073-.148-.187-.278-.34l.262-.236c-.051-.072-.144-.188-.278-.351l.171-.224c.036-.046.1-.14.2-.28.128.159.252.305.37.438l.442-.4c.129.159.223.27.281.336l-.443.4q.582.719.679.826a.56.56,0,0,0,.169.14.2.2,0,0,0,.15.015.348.348,0,0,0,.134-.075,1.082,1.082,0,0,0,.085-.089c.028-.034.072-.1.134-.189" transform="translate(-23.475 -18.326)" fill="#72737a"/>
        <path id="Trazado_7726" data-name="Trazado 7726" d="M94.07,71.26c-.1-.117-.184-.205-.241-.266l-.049-.052q.157-.143.254-.236c.088-.084.169-.163.243-.237.022.031.05.064.082.1l.2.227c-.088.079-.168.154-.24.222s-.155.15-.248.243M95.842,73.3c-.139-.181-.258-.329-.357-.446q-.233-.28-.547-.635t-.6-.669q.169-.155.252-.233c.05-.049.131-.128.243-.238q.25.308.483.581c.155.182.337.386.546.614s.374.407.5.537c-.105.1-.189.174-.251.233s-.146.142-.263.257" transform="translate(-23.781 -17.87)" fill="#72737a"/>
        <path id="Trazado_7727" data-name="Trazado 7727" d="M98.34,70.335c.039.049.081.107.125.173s.1.146.175.24a3.009,3.009,0,0,1-.41.523,1.925,1.925,0,0,1-.281.237,1.025,1.025,0,0,1-.316.148.947.947,0,0,1-.351.028.96.96,0,0,1-.367-.12,1.535,1.535,0,0,1-.338-.252,1.6,1.6,0,0,1-.325-.453,1.055,1.055,0,0,1-.112-.5.967.967,0,0,1,.123-.449,1.95,1.95,0,0,1,.306-.4A3.038,3.038,0,0,1,96.8,69.3a2.961,2.961,0,0,1,.317-.224l.379.323a1.974,1.974,0,0,0-.509.352.844.844,0,0,0-.173.251.606.606,0,0,0-.053.289.655.655,0,0,0,.083.285,1.083,1.083,0,0,0,.185.243.926.926,0,0,0,.315.213.487.487,0,0,0,.34,0,.826.826,0,0,0,.331-.213,1.5,1.5,0,0,0,.16-.2,1.992,1.992,0,0,0,.163-.287" transform="translate(-24.38 -17.518)" fill="#72737a"/>
        <path id="Trazado_7728" data-name="Trazado 7728" d="M97.438,67.86q-.166-.166-.258-.249l-.053-.049q.148-.153.238-.252.123-.134.227-.253a1.089,1.089,0,0,0,.088.095l.214.213c-.083.085-.157.164-.225.237s-.145.16-.231.258m1.9,1.925q-.226-.256-.385-.422-.251-.263-.587-.6t-.646-.628c.105-.11.183-.193.235-.249s.122-.136.226-.254q.27.291.52.549c.166.171.362.364.584.577s.4.381.533.5c-.1.1-.176.186-.235.249s-.137.151-.246.274" transform="translate(-24.63 -17.005)" fill="#72737a"/>
        <path id="Trazado_7729" data-name="Trazado 7729" d="M99.534,67.081c-.069-.087-.118-.147-.148-.18s-.074-.084-.132-.152a5.357,5.357,0,0,1,.288-.493,3.794,3.794,0,0,1,.284-.377,1.868,1.868,0,0,1,.352-.322.714.714,0,0,1,.36-.136.506.506,0,0,1,.357.146c.066.056.225.208.476.457s.52.5.8.746q-.12.132-.217.246t-.214.258q-.189-.2-.451-.452l-.409-.39a1.4,1.4,0,0,1-.028.155.884.884,0,0,1-.037.107c-.015.039-.045.1-.089.2s-.078.166-.1.225a1.039,1.039,0,0,0-.054.166.538.538,0,0,0-.015.146.315.315,0,0,0,.028.118.271.271,0,0,0,.069.088.246.246,0,0,0,.162.063.3.3,0,0,0,.167-.047.7.7,0,0,0,.153-.137,1.181,1.181,0,0,0,.095-.128,1.367,1.367,0,0,0,.1-.207,3.9,3.9,0,0,0,.219.337c-.058.1-.107.171-.146.224s-.077.1-.113.143a1.288,1.288,0,0,1-.374.317.532.532,0,0,1-.369.054.709.709,0,0,1-.315-.151.561.561,0,0,1-.189-.345.86.86,0,0,1,0-.233,1.285,1.285,0,0,1,.094-.33,4.836,4.836,0,0,1,.245-.5c.029-.053.058-.109.087-.169a1.253,1.253,0,0,0,.061-.15.357.357,0,0,0,.016-.118.286.286,0,0,0-.022-.1.217.217,0,0,0-.054-.074.21.21,0,0,0-.152-.051.322.322,0,0,0-.166.062.888.888,0,0,0-.155.144,2.649,2.649,0,0,0-.463.844" transform="translate(-25.17 -16.59)" fill="#72737a"/>
        <path id="Trazado_7730" data-name="Trazado 7730" d="M17.795,82.961q-.195.319-.377.657-.365-.071-.661-.155t-.5-.161a3.187,3.187,0,0,1-.817-.447,2.311,2.311,0,0,1-.594-.669,1.637,1.637,0,0,1-.235-.823,2.552,2.552,0,0,1,.681-1.72,2.013,2.013,0,0,1,.773-.508,2.323,2.323,0,0,1,.947-.128,3.4,3.4,0,0,1,1,.217,6.151,6.151,0,0,1,1.025.509c-.059.177-.1.3-.121.377l-.1.322A5.762,5.762,0,0,0,18.3,80.1a3.2,3.2,0,0,0-.419-.194,2.14,2.14,0,0,0-.654-.137,1.5,1.5,0,0,0-.639.107,1.482,1.482,0,0,0-.538.372,1.711,1.711,0,0,0-.354.57,1.619,1.619,0,0,0-.107.74,1.234,1.234,0,0,0,.3.673,1.773,1.773,0,0,0,.753.5,4.456,4.456,0,0,0,1.153.232" transform="translate(-3.705 -20.034)" fill="#72737a"/>
        <path id="Trazado_7731" data-name="Trazado 7731" d="M23.053,80.822a3.276,3.276,0,0,1,.852.369,2.1,2.1,0,0,1,.641.613,1.912,1.912,0,0,1,.316.79,2.185,2.185,0,0,1-.073.915,2.649,2.649,0,0,1-.405.846,1.953,1.953,0,0,1-.693.6,2.154,2.154,0,0,1-.934.231,3.546,3.546,0,0,1-1.956-.529,2.142,2.142,0,0,1-.669-.644,1.74,1.74,0,0,1-.287-.8,2.353,2.353,0,0,1,.083-.855,2.512,2.512,0,0,1,.434-.87,1.876,1.876,0,0,1,.725-.581,2.485,2.485,0,0,1,.93-.211,3.35,3.35,0,0,1,1.038.128m-.228.631a1.6,1.6,0,0,0-.873-.016,1.379,1.379,0,0,0-.681.43,1.859,1.859,0,0,0-.394.74,1.641,1.641,0,0,0-.032.771,1.173,1.173,0,0,0,.379.649,1.793,1.793,0,0,0,1.323.443,1.316,1.316,0,0,0,.569-.18,1.4,1.4,0,0,0,.446-.422,1.983,1.983,0,0,0,.273-.589,1.9,1.9,0,0,0,.068-.6,1.269,1.269,0,0,0-.153-.552,1.234,1.234,0,0,0-.381-.422,1.762,1.762,0,0,0-.543-.252" transform="translate(-5.03 -20.462)" fill="#72737a"/>
        <path id="Trazado_7732" data-name="Trazado 7732" d="M26.514,86.1q.157-.543.309-1.227l.337-1.5q.181-.817.293-1.457c.244.047.452.086.623.115.126.022.312.053.555.091q.252.672.711,1.763t.734,1.8l.618-2.85q.02-.1.063-.343.3.058.449.085l.445.071-.277,1.121-.437,1.925L30.7,86.829c-.219-.043-.405-.078-.56-.1-.123-.022-.322-.054-.6-.1q-.11-.3-.169-.449-.094-.227-.408-.939c-.137-.312-.307-.712-.509-1.2q-.224-.536-.379-.933-.113.5-.4,1.844-.119.55-.263,1.3l-.43-.081c-.07-.013-.225-.038-.467-.075" transform="translate(-6.724 -20.772)" fill="#72737a"/>
        <path id="Trazado_7733" data-name="Trazado 7733" d="M33.188,87.093c.013-.318.016-.579.007-.781a2.872,2.872,0,0,0,1.113.389,1.175,1.175,0,0,0,.389-.025.534.534,0,0,0,.279-.146.4.4,0,0,0,.109-.24.442.442,0,0,0-.022-.195.9.9,0,0,0-.181-.26c-.11-.126-.31-.337-.6-.628q-.206-.213-.283-.3a2.268,2.268,0,0,1-.263-.349,1.027,1.027,0,0,1-.12-.3,1.005,1.005,0,0,1,.206-.839,1.105,1.105,0,0,1,.542-.355A2.134,2.134,0,0,1,35.223,83a5.575,5.575,0,0,1,1.02.209q-.016.327-.008.749a2.661,2.661,0,0,0-.9-.276.885.885,0,0,0-.527.09.4.4,0,0,0-.231.3.393.393,0,0,0,0,.106.478.478,0,0,0,.031.11.785.785,0,0,0,.087.144,1.68,1.68,0,0,0,.19.214c.085.083.157.151.218.2l.361.388q.138.137.246.263a2.677,2.677,0,0,1,.181.241,1.164,1.164,0,0,1,.113.216.967.967,0,0,1,.053.205.949.949,0,0,1,0,.216,1.043,1.043,0,0,1-.569.831,1.512,1.512,0,0,1-.532.158,2.932,2.932,0,0,1-.595,0,3.953,3.953,0,0,1-.473-.081q-.269-.06-.7-.2" transform="translate(-8.416 -21.044)" fill="#72737a"/>
        <path id="Trazado_7734" data-name="Trazado 7734" d="M37.716,87.58l.132-1.2.112-1.388.082-1.264.013-.427q.794.032,1.656.06l.617.016.929.027-.06.676-.305-.025c-.084-.007-.2-.014-.347-.021s-.3-.013-.453-.018c-.334-.011-.55-.017-.648-.019S39.2,84,39,84l-.089,1.112c.294.016.59.029.887.038q.309.01,1.043.014c-.024.19-.046.417-.067.683l-.984-.041q-.378-.012-.946-.012l-.09,1.173.354.014c.1,0,.339.01.708.016l.7.01L40.985,87c-.029.242-.052.471-.067.685q-.836-.032-1.508-.054L38.353,87.6Z" transform="translate(-9.564 -21.125)" fill="#72737a"/>
        <path id="Trazado_7735" data-name="Trazado 7735" d="M42.283,87.627c-.019-.24-.046-.487-.079-.745a5.631,5.631,0,0,0,.556.135,1.944,1.944,0,0,0,.388.029A1.035,1.035,0,0,0,43.44,87a.957.957,0,0,0,.219-.1.615.615,0,0,0,.116-.107.7.7,0,0,0,.11-.192,1.354,1.354,0,0,0,.062-.311q.028-.259.037-.855.006-.469.005-1.05,0-.487-.016-1.027.383,0,.493-.008c.086,0,.258-.009.515-.021l-.049,1.35q-.012.487-.017,1.336a5.368,5.368,0,0,1-.042.8,1.014,1.014,0,0,1-.091.292.838.838,0,0,1-.146.205,1.15,1.15,0,0,1-.252.186,1.708,1.708,0,0,1-.414.166,2.344,2.344,0,0,1-.536.075,5.6,5.6,0,0,1-1.152-.109" transform="translate(-10.702 -21.131)" fill="#72737a"/>
        <path id="Trazado_7736" data-name="Trazado 7736" d="M48.911,82.9a3.258,3.258,0,0,1,.928.033,2.106,2.106,0,0,1,.821.335,1.924,1.924,0,0,1,.582.62,2.186,2.186,0,0,1,.266.879,2.625,2.625,0,0,1-.067.937,1.941,1.941,0,0,1-.427.808,2.157,2.157,0,0,1-.784.557,3.466,3.466,0,0,1-1.016.26,3.424,3.424,0,0,1-1-.038,2.136,2.136,0,0,1-.858-.356,1.723,1.723,0,0,1-.56-.637,2.357,2.357,0,0,1-.234-.826,2.5,2.5,0,0,1,.084-.968,1.889,1.889,0,0,1,.463-.806,2.49,2.49,0,0,1,.788-.537,3.373,3.373,0,0,1,1.013-.26m.018.67a1.6,1.6,0,0,0-.819.3,1.388,1.388,0,0,0-.478.65,1.863,1.863,0,0,0-.1.832,1.625,1.625,0,0,0,.252.729,1.167,1.167,0,0,0,.59.467,1.751,1.751,0,0,0,.8.1,1.769,1.769,0,0,0,.593-.169,1.327,1.327,0,0,0,.464-.375,1.411,1.411,0,0,0,.261-.556,1.967,1.967,0,0,0,.04-.649,1.9,1.9,0,0,0-.156-.583,1.274,1.274,0,0,0-.344-.458,1.211,1.211,0,0,0-.51-.253,1.755,1.755,0,0,0-.6-.037" transform="translate(-11.804 -21.019)" fill="#72737a"/>
        <path id="Trazado_7737" data-name="Trazado 7737" d="M59.447,84.366c0,.126.009.3.022.523s.025.395.039.516a8.656,8.656,0,0,1-1.177.366,3.542,3.542,0,0,1-.974.087,2.4,2.4,0,0,1-.895-.228,1.657,1.657,0,0,1-.672-.55,2.3,2.3,0,0,1-.349-.823,2.342,2.342,0,0,1-.01-1.044,2.016,2.016,0,0,1,.444-.875,2.624,2.624,0,0,1,.777-.617,3.817,3.817,0,0,1,.951-.346,7.246,7.246,0,0,1,1.175-.14l.063.256c.029.111.063.233.1.366l.1.345q-.386,0-.621.016a3.339,3.339,0,0,0-.428.063,1.759,1.759,0,0,0-.726.337,1.293,1.293,0,0,0-.426.6,1.331,1.331,0,0,0-.038.742,1.09,1.09,0,0,0,.3.562,1.111,1.111,0,0,0,.527.287,1.585,1.585,0,0,0,.717-.016,3.563,3.563,0,0,0,.478-.144,6.008,6.008,0,0,0,.627-.283" transform="translate(-14.043 -20.6)" fill="#72737a"/>
        <path id="Trazado_7738" data-name="Trazado 7738" d="M61.487,85.023q-.515-2.475-.89-3.781l-.114-.389c.362-.1.6-.166.726-.2.055-.015.276-.081.663-.2q.139.694.278,1.311.2.857.39,1.6t.341,1.259l-.636.175-.758.224" transform="translate(-15.338 -20.403)" fill="#72737a"/>
        <path id="Trazado_7739" data-name="Trazado 7739" d="M62.938,79.814c.316-.109.539-.187.667-.233.162-.058.376-.137.643-.237l.361,1.288c.066.243.133.47.2.68s.113.355.14.433a1.886,1.886,0,0,0,.168.364.627.627,0,0,0,.213.212.562.562,0,0,0,.3.071,1.061,1.061,0,0,0,.344-.063,1.012,1.012,0,0,0,.258-.137.652.652,0,0,0,.146-.152.631.631,0,0,0,.078-.167.918.918,0,0,0,.036-.251,1.328,1.328,0,0,0-.039-.337q-.041-.2-.243-.905-.171-.6-.324-1.091a2.927,2.927,0,0,1-.136-.483l.72-.259.614-.221.607,2.151c.012.04.022.072.032.1a4.565,4.565,0,0,1,.234.895,1.2,1.2,0,0,1-.059.517,1.442,1.442,0,0,1-.322.493,2.345,2.345,0,0,1-.584.449,4.83,4.83,0,0,1-.726.331,4.762,4.762,0,0,1-.671.187,2.823,2.823,0,0,1-.573.051,2.012,2.012,0,0,1-.481-.066,1.114,1.114,0,0,1-.325-.142.982.982,0,0,1-.234-.232,1.438,1.438,0,0,1-.2-.373c-.016-.047-.04-.119-.071-.216s-.07-.238-.12-.422l-.131-.487q-.052-.191-.163-.559Z" transform="translate(-15.96 -19.862)" fill="#72737a"/>
        <path id="Trazado_7740" data-name="Trazado 7740" d="M70.532,81.668q-.238-.678-.4-1.079-.237-.6-.633-1.535-.3-.717-.446-1.021L68.9,77.7q.345-.151.592-.267c.159-.075.366-.176.62-.305s.495-.248.722-.355a4.99,4.99,0,0,1,.706-.275,1.775,1.775,0,0,1,.637-.069,1.473,1.473,0,0,1,.6.172,1.872,1.872,0,0,1,.515.416,2.521,2.521,0,0,1,.387.593,3,3,0,0,1,.22.652,2.531,2.531,0,0,1,.055.628,1.914,1.914,0,0,1-.1.547,1.881,1.881,0,0,1-.245.474,1.827,1.827,0,0,1-.257.294,2.622,2.622,0,0,1-.408.29,7.027,7.027,0,0,1-.7.369l-1.181.543c-.11.052-.289.139-.535.261m.858-1.446c.111-.04.225-.088.342-.143a2.721,2.721,0,0,0,.505-.3.93.93,0,0,0,.307-.411,1.108,1.108,0,0,0,.058-.552,1.922,1.922,0,0,0-.167-.578,1.315,1.315,0,0,0-.393-.511.766.766,0,0,0-.484-.166,1.582,1.582,0,0,0-.61.175q-.209.1-.487.249Z" transform="translate(-17.472 -19.38)" fill="#72737a"/>
        <path id="Trazado_7741" data-name="Trazado 7741" d="M76.546,78.964v-.525l-.125-3.48-.022-.384c-.007-.113-.019-.273-.035-.482q.49-.283.714-.416.391-.231.72-.433l1.07.888,2.1,1.681.394.3-.585.339q-.233.138-.681.411-.385-.374-.971-.841l-1.394.825q.04.618.122,1.343-.518.3-.635.369-.21.124-.675.407m1.058-3.1.86-.508q-.883-.764-.972-.842.053.5.075.833Z" transform="translate(-19.365 -18.574)" fill="#72737a"/>
        <path id="Trazado_7742" data-name="Trazado 7742" d="M82.641,74.947q-.364-.62-.6-.983-.346-.54-.914-1.385-.436-.646-.634-.918l-.216-.3q.309-.214.53-.375t.55-.418q.337-.264.641-.486a5.085,5.085,0,0,1,.64-.4,1.8,1.8,0,0,1,.612-.19,1.473,1.473,0,0,1,.623.054,1.863,1.863,0,0,1,.584.31,2.478,2.478,0,0,1,.494.509,2.951,2.951,0,0,1,.34.6,2.538,2.538,0,0,1,.174.6,1.941,1.941,0,0,1,.007.557,1.882,1.882,0,0,1-.151.512,1.856,1.856,0,0,1-.2.337,2.719,2.719,0,0,1-.344.364,7.251,7.251,0,0,1-.614.495l-1.055.758c-.1.073-.258.192-.475.359m.567-1.583c.1-.06.2-.129.308-.205a2.822,2.822,0,0,0,.44-.39.936.936,0,0,0,.222-.461,1.106,1.106,0,0,0-.048-.554,1.91,1.91,0,0,0-.275-.536,1.312,1.312,0,0,0-.482-.427.77.77,0,0,0-.508-.07,1.572,1.572,0,0,0-.564.287c-.125.09-.269.2-.431.337Z" transform="translate(-20.358 -17.619)" fill="#72737a"/>
        <path id="Trazado_7743" data-name="Trazado 7743" d="M88,71.267l-.1-.516-.789-3.39-.095-.373q-.043-.165-.127-.467.427-.372.622-.545c.226-.2.434-.387.623-.562l1.22.667,2.386,1.247.444.219q-.42.365-.509.445-.2.179-.59.533-.45-.293-1.114-.639L88.76,68.961q.158.6.378,1.294-.452.393-.553.483-.184.162-.585.529m.444-3.248.747-.664q-1.014-.579-1.115-.64.148.485.233.8Z" transform="translate(-22.034 -16.588)" fill="#72737a"/>
        <path id="Trazado_7744" data-name="Trazado 7744" d="M93.305,65.718l-.442-.493L91.3,63.619l-.639-.637-.361-.331c.228-.242.429-.458.6-.645q.186-.2.517-.572l2.724.64.392.1q-.364-.383-1.039-1.056t-.942-.919c.181-.191.325-.344.433-.461.049-.054.19-.21.422-.469l.636.691,1.815,1.866.539.522q-.288.3-.534.572c-.137.149-.324.355-.562.62-.226-.057-.391-.1-.5-.12l-1.024-.21q-.5-.1-.952-.208-.288-.064-.619-.155l1.049,1.059.9.873q-.274.289-.416.443-.12.13-.443.491" transform="translate(-22.9 -15.031)" fill="#72737a"/>
        <path id="Trazado_7745" data-name="Trazado 7745" d="M96.439,55.756a3.612,3.612,0,0,1,.7-.715,2.258,2.258,0,0,1,.843-.411,1.928,1.928,0,0,1,.867-.021,2.115,2.115,0,0,1,.819.388,2.388,2.388,0,0,1,.661.733,2.045,2.045,0,0,1,.266.9,2.312,2.312,0,0,1-.16.971,3.911,3.911,0,0,1-.517.935,3.865,3.865,0,0,1-.734.753,2.254,2.254,0,0,1-.879.426,1.789,1.789,0,0,1-.87,0,2.244,2.244,0,0,1-.775-.384,2.216,2.216,0,0,1-.774-.982,2.154,2.154,0,0,1-.074-1.261,3.451,3.451,0,0,1,.628-1.335m.724.61a1.285,1.285,0,0,0-.257.643,1.185,1.185,0,0,0,.122.663,1.471,1.471,0,0,0,.447.533,1.28,1.28,0,0,0,.575.246,1.026,1.026,0,0,0,.613-.1,1.354,1.354,0,0,0,.5-.416,1.271,1.271,0,0,0,.251-.629,1.144,1.144,0,0,0-.122-.656,1.471,1.471,0,0,0-.438-.52,1.352,1.352,0,0,0-.584-.253,1.029,1.029,0,0,0-.607.078,1.261,1.261,0,0,0-.5.412" transform="translate(-24.282 -13.838)" fill="#72737a"/>
      </g>
    </g>
  </g>
</svg>
